<?xml version="1.0" encoding="UTF-8"?>
<!--Generator: Apple Native CoreSVG 232.5-->
<!DOCTYPE svg
PUBLIC "-//W3C//DTD SVG 1.1//EN"
       "http://www.w3.org/Graphics/SVG/1.1/DTD/svg11.dtd">
<svg version="1.1" xmlns="http://www.w3.org/2000/svg" xmlns:xlink="http://www.w3.org/1999/xlink" width="82.925" height="109.258">
 <g>
  <rect height="109.258" opacity="0" width="82.925" x="0" y="0"/>
  <path d="M51.7555 21.5234C57.732 21.5234 62.4976 16.7188 62.4976 10.7812C62.4976 4.80469 57.732 0 51.7555 0C45.7789 0 40.9742 4.80469 40.9742 10.7812C40.9742 16.7188 45.7789 21.5234 51.7555 21.5234ZM34.8805 64.6875L53.9039 75.3906L41.5992 85.9766C39.0211 88.1641 39.0211 91.0547 40.6226 92.8516C42.3023 94.7266 45.193 95.0391 47.8492 92.7734L64.9586 78.2031C67.2633 76.2109 66.8726 71.9922 64.0992 70.1953L45.4664 57.9688L49.1773 45.0781C49.6851 43.1641 51.8336 42.9297 52.9664 44.5703L58.4351 52.5391C59.7242 54.375 62.0289 55.0781 64.1383 54.1406L79.8414 47.1094C82.6148 45.8984 83.6305 43.5156 82.4195 41.0156C81.2476 38.5547 78.8648 37.8125 76.1305 39.0234L63.6305 44.5703L54.9976 32.6562C50.5445 26.4844 44.9976 24.0234 35.9351 24.6875L18.4742 25.9375C15.7789 26.1328 13.8648 27.9297 13.5133 30.7422L11.1695 48.4375C10.7398 51.4844 12.2242 53.5938 14.9586 53.8672C17.6539 54.1406 19.4117 52.5391 19.8414 49.5312L21.9898 35L29.0211 34.5312C30.6617 34.375 32.1461 35.5469 31.5992 37.4219L27.5758 51.6797C25.1539 60 30.5836 62.2656 34.8805 64.6875ZM1.67733 107.539C3.55233 109.141 6.32577 109.258 8.78671 106.875L24.8414 90.9766C26.2086 89.6094 26.482 89.2969 27.3023 87.2266L34.1383 69.6094L32.5758 68.75C28.7867 66.6406 26.1305 64.6094 24.4117 62.3438L18.4742 83.5156L1.75546 100.117C-0.783607 102.617-0.35392 105.742 1.67733 107.539Z" fill="#A6FF00"/>
 </g>
</svg>
